# MagicaVoxel @ Ephtracy

# group
o 

# material
mtllib material.mtl
usemtl palette

# normals
vn -1 0 0
vn 1 0 0
vn 0 0 1
vn 0 0 -1
vn 0 -1 0
vn 0 1 0

# texcoords
vt 0.939453 0.5
vt 0.947266 0.5
vt 0.955078 0.5
vt 0.966797 0.5
vt 0.978516 0.5
vt 0.982422 0.5

# verts
v -0.2 0.1 0.2
v -0.2 0.1 -0.4
v -0.2 0.1 -0.5
v -0.2 0.1 -0.9
v -0.2 0.2 0
v -0.2 0.2 -0.1
v -0.2 0.3 0
v -0.2 0.3 -0.1
v -0.2 0.4 0.2
v -0.2 0.4 -0.4
v -0.2 0.4 -0.5
v -0.2 0.4 -0.9
v -0.1 0 0.2
v -0.1 0 -0.3
v -0.1 0 -0.4
v -0.1 0 -0.9
v -0.1 0.1 1
v -0.1 0.1 0.2
v -0.1 0.1 -0.3
v -0.1 0.1 -0.4
v -0.1 0.1 -0.5
v -0.1 0.1 -0.9
v -0.1 0.1 -1
v -0.1 0.3 1
v -0.1 0.3 0.3
v -0.1 0.4 0.3
v -0.1 0.4 0.2
v -0.1 0.4 -0.3
v -0.1 0.4 -0.4
v -0.1 0.4 -0.5
v -0.1 0.4 -0.7
v -0.1 0.4 -0.9
v -0.1 0.4 -1
v -0.1 0.5 0.2
v -0.1 0.5 0.1
v -0.1 0.5 0
v -0.1 0.5 -0.3
v -0.1 0.5 -0.4
v -0.1 0.5 -0.7
v -0.1 0.5 -0.8
v -0.1 0.5 -0.9
v -0.1 0.6 0.1
v -0.1 0.6 0
v -0.1 0.6 -0.7
v -0.1 0.6 -0.8
v 0.1 0 0.2
v 0.1 0 -0.3
v 0.1 0 -0.4
v 0.1 0 -0.9
v 0.1 0.1 1
v 0.1 0.1 0.2
v 0.1 0.1 -0.3
v 0.1 0.1 -0.4
v 0.1 0.1 -0.5
v 0.1 0.1 -0.9
v 0.1 0.1 -1
v 0.1 0.3 1
v 0.1 0.3 0.3
v 0.1 0.4 0.3
v 0.1 0.4 0.2
v 0.1 0.4 -0.3
v 0.1 0.4 -0.4
v 0.1 0.4 -0.5
v 0.1 0.4 -0.7
v 0.1 0.4 -0.9
v 0.1 0.4 -1
v 0.1 0.5 0.2
v 0.1 0.5 0.1
v 0.1 0.5 0
v 0.1 0.5 -0.3
v 0.1 0.5 -0.4
v 0.1 0.5 -0.7
v 0.1 0.5 -0.8
v 0.1 0.5 -0.9
v 0.1 0.6 0.1
v 0.1 0.6 0
v 0.1 0.6 -0.7
v 0.1 0.6 -0.8
v 0.2 0.1 0.2
v 0.2 0.1 -0.4
v 0.2 0.1 -0.5
v 0.2 0.1 -0.9
v 0.2 0.2 0
v 0.2 0.2 -0.1
v 0.2 0.3 0
v 0.2 0.3 -0.1
v 0.2 0.4 0.2
v 0.2 0.4 -0.4
v 0.2 0.4 -0.5
v 0.2 0.4 -0.9
v -0.1 0.1 1
v -0.1 0.3 1
v 0.1 0.1 1
v 0.1 0.3 1
v -0.1 0.3 0.3
v -0.1 0.4 0.3
v 0.1 0.3 0.3
v 0.1 0.4 0.3
v -0.2 0.1 0.2
v -0.2 0.4 0.2
v -0.1 0 0.2
v -0.1 0.1 0.2
v -0.1 0.4 0.2
v -0.1 0.5 0.2
v 0.1 0 0.2
v 0.1 0.1 0.2
v 0.1 0.4 0.2
v 0.1 0.5 0.2
v 0.2 0.1 0.2
v 0.2 0.4 0.2
v -0.1 0.5 0.1
v -0.1 0.6 0.1
v 0.1 0.5 0.1
v 0.1 0.6 0.1
v -0.1 0.5 -0.7
v -0.1 0.6 -0.7
v 0.1 0.5 -0.7
v 0.1 0.6 -0.7
v -0.1 0.5 0
v -0.1 0.6 0
v 0.1 0.5 0
v 0.1 0.6 0
v -0.1 0.5 -0.8
v -0.1 0.6 -0.8
v 0.1 0.5 -0.8
v 0.1 0.6 -0.8
v -0.2 0.1 -0.9
v -0.2 0.4 -0.9
v -0.1 0 -0.9
v -0.1 0.1 -0.9
v -0.1 0.4 -0.9
v -0.1 0.5 -0.9
v 0.1 0 -0.9
v 0.1 0.1 -0.9
v 0.1 0.4 -0.9
v 0.1 0.5 -0.9
v 0.2 0.1 -0.9
v 0.2 0.4 -0.9
v -0.1 0.1 -1
v -0.1 0.4 -1
v 0.1 0.1 -1
v 0.1 0.4 -1
v -0.1 0 0.2
v 0.1 0 0.2
v -0.1 0 -0.3
v 0.1 0 -0.3
v -0.1 0 -0.4
v 0.1 0 -0.4
v -0.1 0 -0.9
v 0.1 0 -0.9
v -0.1 0.1 1
v 0.1 0.1 1
v -0.2 0.1 0.2
v -0.1 0.1 0.2
v 0.1 0.1 0.2
v 0.2 0.1 0.2
v -0.1 0.1 -0.3
v 0.1 0.1 -0.3
v -0.2 0.1 -0.4
v -0.1 0.1 -0.4
v 0.1 0.1 -0.4
v 0.2 0.1 -0.4
v -0.2 0.1 -0.5
v -0.1 0.1 -0.5
v 0.1 0.1 -0.5
v 0.2 0.1 -0.5
v -0.2 0.1 -0.9
v -0.1 0.1 -0.9
v 0.1 0.1 -0.9
v 0.2 0.1 -0.9
v -0.1 0.1 -1
v 0.1 0.1 -1
v -0.1 0.3 1
v 0.1 0.3 1
v -0.1 0.3 0.3
v 0.1 0.3 0.3
v -0.1 0.4 0.3
v 0.1 0.4 0.3
v -0.2 0.4 0.2
v -0.1 0.4 0.2
v 0.1 0.4 0.2
v 0.2 0.4 0.2
v -0.1 0.4 -0.3
v 0.1 0.4 -0.3
v -0.2 0.4 -0.4
v -0.1 0.4 -0.4
v 0.1 0.4 -0.4
v 0.2 0.4 -0.4
v -0.2 0.4 -0.5
v -0.1 0.4 -0.5
v 0.1 0.4 -0.5
v 0.2 0.4 -0.5
v -0.1 0.4 -0.7
v 0.1 0.4 -0.7
v -0.2 0.4 -0.9
v -0.1 0.4 -0.9
v 0.1 0.4 -0.9
v 0.2 0.4 -0.9
v -0.1 0.4 -1
v 0.1 0.4 -1
v -0.1 0.5 0.2
v 0.1 0.5 0.2
v -0.1 0.5 0.1
v 0.1 0.5 0.1
v -0.1 0.5 0
v 0.1 0.5 0
v -0.1 0.5 -0.3
v 0.1 0.5 -0.3
v -0.1 0.5 -0.4
v 0.1 0.5 -0.4
v -0.1 0.5 -0.7
v 0.1 0.5 -0.7
v -0.1 0.5 -0.8
v 0.1 0.5 -0.8
v -0.1 0.5 -0.9
v 0.1 0.5 -0.9
v -0.1 0.6 0.1
v 0.1 0.6 0.1
v -0.1 0.6 0
v 0.1 0.6 0
v -0.1 0.6 -0.7
v 0.1 0.6 -0.7
v -0.1 0.6 -0.8
v 0.1 0.6 -0.8

# faces
f 5/3/1 2/3/1 1/3/1
f 6/3/1 2/3/1 5/3/1
f 7/3/1 5/3/1 1/3/1
f 7/6/1 6/6/1 5/6/1
f 8/3/1 2/3/1 6/3/1
f 8/6/1 6/6/1 7/6/1
f 9/3/1 7/3/1 1/3/1
f 9/3/1 8/3/1 7/3/1
f 10/4/1 3/4/1 2/4/1
f 10/3/1 8/3/1 9/3/1
f 10/3/1 2/3/1 8/3/1
f 11/2/1 4/2/1 3/2/1
f 11/4/1 3/4/1 10/4/1
f 12/2/1 4/2/1 11/2/1
f 18/3/1 14/3/1 13/3/1
f 19/4/1 15/4/1 14/4/1
f 19/3/1 14/3/1 18/3/1
f 20/2/1 16/2/1 15/2/1
f 20/4/1 15/4/1 19/4/1
f 21/2/1 16/2/1 20/2/1
f 22/2/1 16/2/1 21/2/1
f 24/6/1 18/6/1 17/6/1
f 25/6/1 18/6/1 24/6/1
f 26/6/1 18/6/1 25/6/1
f 27/6/1 18/6/1 26/6/1
f 32/2/1 23/2/1 22/2/1
f 33/2/1 23/2/1 32/2/1
f 34/3/1 28/3/1 27/3/1
f 35/3/1 28/3/1 34/3/1
f 36/3/1 28/3/1 35/3/1
f 37/4/1 29/4/1 28/4/1
f 37/3/1 28/3/1 36/3/1
f 38/2/1 31/2/1 30/2/1
f 38/4/1 29/4/1 37/4/1
f 38/2/1 30/2/1 29/2/1
f 39/5/1 32/5/1 31/5/1
f 39/2/1 31/2/1 38/2/1
f 40/5/1 32/5/1 39/5/1
f 41/5/1 32/5/1 40/5/1
f 42/4/1 36/4/1 35/4/1
f 43/4/1 36/4/1 42/4/1
f 44/5/1 40/5/1 39/5/1
f 45/5/1 40/5/1 44/5/1
f 46/3/2 47/3/2 51/3/2
f 47/4/2 48/4/2 52/4/2
f 51/3/2 47/3/2 52/3/2
f 48/2/2 49/2/2 53/2/2
f 52/4/2 48/4/2 53/4/2
f 53/2/2 49/2/2 54/2/2
f 54/2/2 49/2/2 55/2/2
f 50/6/2 51/6/2 57/6/2
f 57/6/2 51/6/2 58/6/2
f 58/6/2 51/6/2 59/6/2
f 59/6/2 51/6/2 60/6/2
f 55/2/2 56/2/2 65/2/2
f 65/2/2 56/2/2 66/2/2
f 60/3/2 61/3/2 67/3/2
f 67/3/2 61/3/2 68/3/2
f 68/3/2 61/3/2 69/3/2
f 61/4/2 62/4/2 70/4/2
f 69/3/2 61/3/2 70/3/2
f 63/2/2 64/2/2 71/2/2
f 70/4/2 62/4/2 71/4/2
f 62/2/2 63/2/2 71/2/2
f 64/5/2 65/5/2 72/5/2
f 71/2/2 64/2/2 72/2/2
f 72/5/2 65/5/2 73/5/2
f 73/5/2 65/5/2 74/5/2
f 68/4/2 69/4/2 75/4/2
f 75/4/2 69/4/2 76/4/2
f 72/5/2 73/5/2 77/5/2
f 77/5/2 73/5/2 78/5/2
f 79/3/2 80/3/2 83/3/2
f 83/3/2 80/3/2 84/3/2
f 79/3/2 83/3/2 85/3/2
f 83/6/2 84/6/2 85/6/2
f 84/3/2 80/3/2 86/3/2
f 85/6/2 84/6/2 86/6/2
f 79/3/2 85/3/2 87/3/2
f 85/3/2 86/3/2 87/3/2
f 80/4/2 81/4/2 88/4/2
f 87/3/2 86/3/2 88/3/2
f 86/3/2 80/3/2 88/3/2
f 81/2/2 82/2/2 89/2/2
f 88/4/2 81/4/2 89/4/2
f 89/2/2 82/2/2 90/2/2
f 93/6/3 92/6/3 91/6/3
f 94/6/3 92/6/3 93/6/3
f 97/6/3 96/6/3 95/6/3
f 98/6/3 96/6/3 97/6/3
f 102/3/3 100/3/3 99/3/3
f 103/3/3 100/3/3 102/3/3
f 105/3/3 102/3/3 101/3/3
f 106/3/3 102/3/3 105/3/3
f 107/3/3 104/3/3 103/3/3
f 108/3/3 104/3/3 107/3/3
f 109/3/3 107/3/3 106/3/3
f 110/3/3 107/3/3 109/3/3
f 113/4/3 112/4/3 111/4/3
f 114/4/3 112/4/3 113/4/3
f 117/5/3 116/5/3 115/5/3
f 118/5/3 116/5/3 117/5/3
f 119/4/4 120/4/4 121/4/4
f 121/4/4 120/4/4 122/4/4
f 123/5/4 124/5/4 125/5/4
f 125/5/4 124/5/4 126/5/4
f 127/2/4 128/2/4 130/2/4
f 130/2/4 128/2/4 131/2/4
f 129/2/4 130/2/4 133/2/4
f 133/2/4 130/2/4 134/2/4
f 131/5/4 132/5/4 135/5/4
f 135/5/4 132/5/4 136/5/4
f 134/2/4 135/2/4 137/2/4
f 137/2/4 135/2/4 138/2/4
f 139/2/4 140/2/4 141/2/4
f 141/2/4 140/2/4 142/2/4
f 145/3/5 144/3/5 143/3/5
f 146/3/5 144/3/5 145/3/5
f 147/4/5 146/4/5 145/4/5
f 148/4/5 146/4/5 147/4/5
f 149/2/5 148/2/5 147/2/5
f 150/2/5 148/2/5 149/2/5
f 154/6/5 152/6/5 151/6/5
f 155/6/5 152/6/5 154/6/5
f 157/3/5 154/3/5 153/3/5
f 158/3/5 156/3/5 155/3/5
f 159/3/5 157/3/5 153/3/5
f 160/3/5 157/3/5 159/3/5
f 161/3/5 156/3/5 158/3/5
f 162/3/5 156/3/5 161/3/5
f 163/4/5 160/4/5 159/4/5
f 164/4/5 160/4/5 163/4/5
f 165/4/5 162/4/5 161/4/5
f 166/4/5 162/4/5 165/4/5
f 167/2/5 164/2/5 163/2/5
f 168/2/5 164/2/5 167/2/5
f 169/2/5 166/2/5 165/2/5
f 170/2/5 166/2/5 169/2/5
f 171/2/5 169/2/5 168/2/5
f 172/2/5 169/2/5 171/2/5
f 173/6/6 174/6/6 175/6/6
f 175/6/6 174/6/6 176/6/6
f 177/6/6 178/6/6 180/6/6
f 180/6/6 178/6/6 181/6/6
f 179/3/6 180/3/6 183/3/6
f 181/3/6 182/3/6 184/3/6
f 179/3/6 183/3/6 185/3/6
f 185/3/6 183/3/6 186/3/6
f 184/3/6 182/3/6 187/3/6
f 187/3/6 182/3/6 188/3/6
f 185/4/6 186/4/6 189/4/6
f 189/4/6 186/4/6 190/4/6
f 187/4/6 188/4/6 191/4/6
f 191/4/6 188/4/6 192/4/6
f 189/2/6 190/2/6 193/2/6
f 191/2/6 192/2/6 194/2/6
f 189/2/6 193/2/6 195/2/6
f 195/2/6 193/2/6 196/2/6
f 194/2/6 192/2/6 197/2/6
f 197/2/6 192/2/6 198/2/6
f 196/2/6 197/2/6 199/2/6
f 199/2/6 197/2/6 200/2/6
f 201/3/6 202/3/6 203/3/6
f 203/3/6 202/3/6 204/3/6
f 205/3/6 206/3/6 207/3/6
f 207/3/6 206/3/6 208/3/6
f 207/4/6 208/4/6 209/4/6
f 209/4/6 208/4/6 210/4/6
f 209/2/6 210/2/6 211/2/6
f 211/2/6 210/2/6 212/2/6
f 213/5/6 214/5/6 215/5/6
f 215/5/6 214/5/6 216/5/6
f 217/4/6 218/4/6 219/4/6
f 219/4/6 218/4/6 220/4/6
f 221/5/6 222/5/6 223/5/6
f 223/5/6 222/5/6 224/5/6
