# Alias OBJ Model File
# Exported from SketchUp, (c) 2000-2012 Trimble Navigation Limited
# File units = meters

mtllib cylinder.mtl

g Mesh1 Model

usemtl FrontColor
v 4.83261 0 1.56298
vt -113.484 0
vn -0.707107 0 -0.707107
v 4.05181 0 2.1621
vt -74.7369 0
vn -0.5 0 -0.866025
v 4.05181 9.93 2.1621
vt -74.7369 390.945
v 4.83261 9.93 1.56298
vt -113.484 390.945
f 1/1/1 2/2/2 3/3/2 4/4/1 

vt -114.803 0
v 3.14256 0 2.53873
vt -76.0559 0
vn -0.258819 0 -0.965926
v 3.14256 9.93 2.53873
vt -76.0559 390.945
vt -114.803 390.945
f 2/5/2 5/6/3 6/7/3 3/8/2 

vt -109.618 0
v 2.16681 0 2.66719
vt -70.8716 0
vn 5.17909e-16 0 -1
v 2.16681 9.93 2.66719
vt -70.8716 390.945
vt -109.618 390.945
f 5/9/3 7/10/4 8/11/4 6/12/3 

vt -98.284 0
v 1.19107 0 2.53873
vt -59.5373 0
vn 0.258819 0 -0.965926
v 1.19107 9.93 2.53873
vt -59.5373 390.945
v 1.67894 9.93 2.60296
vt -78.9106 390.945
vn 0.130526 0 -0.991445
vt -98.284 390.945
f 7/13/4 9/14/5 10/15/5 11/16/6 8/17/4 

vt -81.5721 0
v 0.281814 0 2.1621
vt -42.8253 0
vn 0.5 0 -0.866025
v 0.281814 9.93 2.1621
vt -42.8253 390.945
vt -81.5721 390.945
f 9/18/5 12/19/7 13/20/7 10/21/5 

vt -60.6213 0
v -0.498979 0 1.56298
vt -21.8746 0
vn 0.707107 0 -0.707107
v -0.498979 9.93 1.56298
vt -21.8746 390.945
vt -60.6213 390.945
f 12/22/7 14/23/8 15/24/8 13/25/7 

vt -36.8597 0
v -1.0981 0 0.782186
vt 1.8871 0
vn 0.866025 0 -0.5
v -1.0981 9.93 0.782186
vt 1.8871 390.945
vt -36.8597 390.945
f 14/26/8 16/27/9 17/28/9 15/29/8 

vt -11.9063 0
v -1.47473 0 -0.127066
vt 26.8404 0
vn 0.965926 0 -0.258819
v -1.47473 9.93 -0.127066
vt 26.8404 390.945
vt -11.9063 390.945
f 16/30/9 18/31/10 19/32/10 17/33/9 

vt 12.5382 0
v -1.60319 0 -1.10281
vt 51.2849 0
vn 1 0 2.65953e-16
v -1.60319 9.93 -1.10281
vt 51.2849 390.945
vt 12.5382 390.945
f 18/34/10 20/35/11 21/36/11 19/37/10 

vt 34.8079 0
v -1.47473 0 -2.07856
vt 73.5547 0
vn 0.965926 0 0.258819
v -1.47473 9.93 -2.07856
vt 73.5547 390.945
vt 34.8079 390.945
f 20/38/11 22/39/12 23/40/12 21/41/11 

vt 53.3853 0
v -1.0981 0 -2.98781
vt 92.1321 0
vn 0.866025 0 0.5
v -1.0981 9.93 -2.98781
vt 92.1321 390.945
vt 53.3853 390.945
f 22/42/12 24/43/13 25/44/13 23/45/12 

vt 67.0043 0
v -0.498979 0 -3.76861
vt 105.751 0
vn 0.707107 0 0.707107
v -0.498979 9.93 -3.76861
vt 105.751 390.945
vt 67.0043 390.945
f 24/46/13 26/47/14 27/48/14 25/49/13 

vt 74.7369 0
v 0.281814 0 -4.36773
vt 113.484 0
vn 0.5 0 0.866025
v 0.281814 9.93 -4.36773
vt 113.484 390.945
vt 74.7369 390.945
f 26/50/14 28/51/15 29/52/15 27/53/14 

vt 76.0559 0
v 1.19107 0 -4.74435
vt 114.803 0
vn 0.258819 0 0.965926
v 1.19107 9.93 -4.74435
vt 114.803 390.945
vt 76.0559 390.945
f 28/54/15 30/55/16 31/56/16 29/57/15 

vt 70.8716 0
v 2.16681 0 -4.87281
vt 109.618 0
vn 2.79951e-17 0 1
v 2.16681 9.93 -4.87281
vt 109.618 390.945
vt 70.8716 390.945
f 30/58/16 32/59/17 33/60/17 31/61/16 

vt 59.5373 0
v 3.14256 0 -4.74435
vt 98.284 0
vn -0.258819 0 0.965926
v 3.14256 9.93 -4.74435
vt 98.284 390.945
v 2.65469 9.93 -4.80858
vt 78.9106 390.945
vn -0.130526 0 0.991445
vt 59.5373 390.945
f 32/62/17 34/63/18 35/64/18 36/65/19 33/66/17 

vt 42.8253 0
v 4.05181 0 -4.36773
vt 81.5721 0
vn -0.5 0 0.866025
v 4.05181 9.93 -4.36773
vt 81.5721 390.945
vt 42.8253 390.945
f 34/67/18 37/68/20 38/69/20 35/70/18 

vt 21.8746 0
v 4.83261 0 -3.76861
vt 60.6213 0
vn -0.707107 0 0.707107
v 4.83261 9.93 -3.76861
vt 60.6213 390.945
vt 21.8746 390.945
f 37/71/20 39/72/21 40/73/21 38/74/20 

vt -1.8871 0
v 5.43173 0 -2.98781
vt 36.8597 0
vn -0.866025 0 0.5
v 5.43173 9.93 -2.98781
vt 36.8597 390.945
vt -1.8871 390.945
f 39/75/21 41/76/22 42/77/22 40/78/21 

vt -26.8404 0
v 5.80835 0 -2.07856
vt 11.9063 0
vn -0.965926 0 0.258819
v 5.80835 9.93 -2.07856
vt 11.9063 390.945
vt -26.8404 390.945
f 41/79/22 43/80/23 44/81/23 42/82/22 

vt -51.2849 0
v 5.93681 0 -1.10281
vt -12.5382 0
vn -1 0 -1.39975e-16
v 5.93681 9.93 -1.10281
vt -12.5382 390.945
vt -51.2849 390.945
f 43/83/23 45/84/24 46/85/24 44/86/23 

vt -73.5547 0
v 5.80835 0 -0.127066
vt -34.8079 0
vn -0.965926 0 -0.258819
v 5.80835 9.93 -0.127066
vt -34.8079 390.945
vt -73.5547 390.945
f 45/87/24 47/88/25 48/89/25 46/90/24 

vt -92.1321 0
v 5.43173 0 0.782186
vt -53.3853 0
vn -0.866025 0 -0.5
v 5.43173 9.93 0.782186
vt -53.3853 390.945
vt -92.1321 390.945
f 47/91/25 49/92/26 50/93/26 48/94/25 

vt -105.751 0
vt -67.0043 0
vt -67.0043 390.945
vt -105.751 390.945
f 49/95/26 1/96/1 4/97/1 50/98/26 

